<svg xmlns="http://www.w3.org/2000/svg" viewBox="0 0 100 100">
    <path d="M65.075 3.042c-2.788.355-6.518 2.06-9.698 4.422-2.362 1.759-5.915 5.187-7.815 7.55-2.504 3.107-4.796 6.837-6.181 10.017l-.64 1.492.604 1.705a42.007 42.007 0 0 1 2.345 11.066c.07 1.225.195 2.326.266 2.433.09.124.729.195 1.688.195 1.794 0 3.659-.426 5.666-1.28l1.35-.585.035-1.243c.107-3.41 2.398-6.04 6.945-7.993 1.314-.568 3.286-1.154 4.707-1.403.746-.142 1.439-.924 3.25-3.748 7.105-11.012 7.14-21.492.07-22.646-.62-.09-1.206-.16-1.313-.16-.09.018-.675.089-1.28.178zm-44.37 6.234c-2.095.782-3.676 2.93-4.564 6.199-.373 1.35-.408 1.883-.408 5.31 0 3.233.07 4.12.408 5.79 1.155 5.774 2.949 10.498 5.702 15.134 1.865 3.126 2.984 4.53 3.748 4.67 4.955.996 8.792 2.204 11.989 3.803l2.256 1.1.692-1.047c1.084-1.705 1.705-3.695 2.025-6.466l.124-1.1-.834-.41c-1.013-.514-2.22-1.775-2.824-2.983-.818-1.581-1.048-3.002-.924-5.702.089-2.38.23-3.144.995-5.72l.39-1.35-.8-1.793c-1.775-3.943-4.173-7.655-6.784-10.444-1.865-2.007-3.41-3.197-5.56-4.28-1.598-.8-1.74-.818-3.374-.87-.96-.02-1.954.035-2.256.159zm46.679 20.817-1.634.195-1.137 1.332c-2.557 2.984-5.95 6.004-8.863 7.887-.994.64-1.563 1.136-1.563 1.332 0 .444 1.172 2.309 2.167 3.463.462.533 1.492 1.457 2.274 2.043l1.438 1.083.657-.444c1.03-.675 2.15-1.012 3.5-1.012 3.179-.036 6.234 1.527 9.644 4.938l1.812 1.83 1.972.212c2.557.267 8.614.107 10.692-.266 2.54-.48 4.547-1.12 6.519-2.096 2.344-1.137 4.156-2.842 4.778-4.476 1.865-5.01-3.642-10.728-13.464-13.96-5.932-1.955-13.161-2.754-18.792-2.061zm-52.54 16.98C7.58 47.694 2.18 50.199.53 53.716c-2.576 5.453 4.493 12.114 16.11 15.133 4.51 1.172 10.017 1.688 14.369 1.35 1.51-.124 2.86-.266 3.002-.32.142-.053 1.03-.96 1.953-2.024 2.576-2.931 5.862-5.738 8.81-7.567.586-.355 1.066-.746 1.066-.87 0-.107-.25-.71-.55-1.315-.64-1.28-2.913-3.694-4.388-4.671l-.941-.64-1.261.658c-1.226.62-1.315.64-3.233.64-1.865 0-2.042-.036-3.41-.64-2.114-.924-3.854-2.167-5.897-4.21l-1.847-1.83-1.261-.141c-2.06-.267-6.288-.356-8.206-.196v.002zm44.832 2.522c-1.12 1.51-1.954 4.068-2.203 6.679l-.124 1.19.817.426c1.012.533 2.238 1.83 2.842 3.002 1.332 2.646 1.332 6.554-.018 11.1l-.462 1.546.515 1.28c.284.692 1.048 2.273 1.705 3.48 3.41 6.235 7.656 10.658 11.9 12.327 1.386.569 3.997.569 5.134 0 1.83-.906 3.32-3.073 4.085-5.986.533-2.007.657-6.34.267-9.236-.693-5.293-2.611-10.96-5.365-15.932-.976-1.74-1.864-3.108-3.516-5.346-.16-.196-.73-.391-1.634-.57-4.228-.745-7.975-1.97-11.44-3.73l-1.953-.976-.55.746zm-6.821 8.669c-1.208.177-2.77.639-4.28 1.278l-1.28.533-.07 1.527c-.054 1.208-.178 1.74-.533 2.452-1.67 3.214-5.507 5.577-10.817 6.642-.977.196-1.013.23-1.972 1.563-7.602 10.658-9.112 21.51-3.392 24.316.817.39 1.314.498 2.61.55 4.707.214 10.409-2.788 16.004-8.383 3.126-3.126 5.417-6.092 7.549-9.786 1.03-1.776 2.486-4.903 2.486-5.347 0-.16-.248-.977-.55-1.811-1.261-3.553-2.096-7.691-2.38-11.776l-.125-1.723-.8-.107c-.922-.124-1.207-.106-2.45.07v.002z"/>
</svg>
